<svg width="95" height="72" viewBox="0 0 95 72" fill="none" xmlns="http://www.w3.org/2000/svg">
<g clip-path="url(#clip0_1_401)">
<path d="M93.1916 10.4602C90.3312 15.8847 86.5297 20.7908 83.0604 25.8821C73.9812 39.2305 65.271 52.8752 55.509 65.8163C52.4825 69.8523 49.3823 72.0369 44.326 71.9999C32.4233 71.8703 20.4837 72.1295 8.54411 71.9258C1.54877e-05 71.7592 -2.08526 68.2971 2.06684 60.9657C11.995 43.4702 23.1226 26.6967 31.9619 8.59026C34.9884 2.48072 39.9893 -0.333367 46.928 0.0369083C53.3314 0.351642 59.7902 0.110963 66.2491 0.110963V0.185018C73.3538 0.185018 80.44 -0.092688 87.5447 0.259073C95.0554 0.68489 96.79 3.64709 93.1916 10.4602Z" fill="#1D1D1B"/>
</g>
<defs>
<clipPath id="clip0_1_401">
<rect width="95" height="72" fill="white"/>
</clipPath>
</defs>
</svg>
