<svg width="209" height="70" viewBox="0 0 209 70" fill="none" xmlns="http://www.w3.org/2000/svg">
<g clip-path="url(#clip0_1_343)">
<path d="M70.1549 68.887C70.1209 69.6233 69.678 69.9486 68.7242 69.9657C67.3446 70.0171 65.948 69.9829 64.5684 69.9829C63.274 69.9829 61.9796 70.0171 60.6851 69.9657C59.6291 69.9315 59.3396 69.6404 59.3226 68.5616C59.2885 67.3459 59.2885 66.1472 59.3396 64.9315C59.3907 63.8356 59.7484 63.5274 60.8384 63.4418C61.1109 63.4246 61.3664 63.4247 61.6389 63.4247C63.6828 63.4589 65.7266 63.5959 67.7875 63.4589C69.3885 63.339 69.9165 63.7842 70.1209 65.3767C70.2742 66.5411 70.2231 67.7226 70.1549 68.887Z" fill="black"/>
<path d="M72.318 1.45548C71.9263 2.20891 71.3983 2.89384 70.9044 3.59589C69.644 5.44521 68.4347 7.32877 67.0722 9.12671C66.6464 9.69178 66.2206 9.98288 65.5223 9.98288C63.8701 9.96576 62.201 10 60.5489 9.96576C59.3567 9.94863 59.0671 9.46918 59.6462 8.45891C61.0258 6.0274 62.5757 3.71576 63.802 1.19863C64.2278 0.342468 64.9261 -0.051368 65.897 1.87848e-06C66.7826 0.0513717 67.6853 0.0171252 68.588 0.0171252V0.0342485C69.5759 0.0342485 70.5637 1.88127e-06 71.5516 0.0513717C72.5735 0.102742 72.829 0.513701 72.318 1.45548Z" fill="black"/>
<path d="M203.72 36.4041C203.72 42.7226 203.72 49.024 203.72 55.3425C203.72 57.5171 203.584 57.6541 201.438 57.637C200.007 57.6199 198.56 57.6541 197.129 57.6199C195.766 57.5856 195.511 57.3116 195.46 55.9075C195.46 55.6336 195.46 55.3596 195.46 55.1027C195.46 43.1164 195.46 31.113 195.46 19.1267C195.46 18.6815 195.443 18.2192 195.494 17.774C195.579 16.8836 196.039 16.25 196.925 16.0274C198.491 15.6336 200.058 15.2911 201.676 15.2568C203.516 15.2226 203.703 15.3938 203.703 17.226C203.72 23.5959 203.703 30 203.72 36.4041Z" fill="black"/>
<path d="M186.45 55.6507C186.45 55.9247 186.45 56.1986 186.416 56.4555C186.365 57.1404 185.973 57.5514 185.292 57.5685C183.18 57.6027 181.068 57.6027 178.973 57.5856C178.325 57.5856 177.985 57.2431 177.951 56.5925C177.934 56.0959 177.934 55.5993 177.934 55.1027C177.934 46.9863 177.815 38.8699 177.985 30.7705C178.07 27.226 175.055 22.9281 171.308 21.9863C169.026 21.4212 167.05 22.089 165.006 22.5514C163.746 22.8425 162.571 23.4418 161.345 23.8699C160.629 24.1096 160.357 24.6062 160.425 25.3253C161.498 35.1712 160.663 45.0514 160.919 54.8973C160.987 57.8082 160.851 57.6027 158.16 57.6027C156.678 57.6027 155.196 57.6199 153.714 57.5856C152.641 57.5685 152.471 57.363 152.403 56.3185C152.386 55.9075 152.403 55.4966 152.403 55.1027C152.403 46.9007 152.369 38.6986 152.42 30.4966C152.437 28.2192 151.773 26.2671 150.461 24.4692C150.069 23.9384 149.507 23.6473 148.996 23.3048C146.987 22.0034 144.875 21.2671 142.405 21.9349C141.128 22.2774 139.748 22.3288 138.471 22.7397C137.534 23.0479 136.614 23.4075 135.677 23.7329C134.945 23.9726 134.621 24.4863 134.621 25.2568C134.621 25.8048 134.604 26.3356 134.604 26.8836C134.604 36.3527 134.604 45.8219 134.604 55.274C134.604 57.5856 134.604 57.5856 132.271 57.5856C130.789 57.5856 129.307 57.5856 127.826 57.5856C126.139 57.5685 126.054 57.4829 126.054 55.839C126.054 50.7363 126.054 45.6507 126.054 40.5651V38.5445C126.054 32.911 126.054 27.2774 126.054 21.6438C126.054 19.8459 126.054 19.7945 127.706 19.161C131.011 17.911 134.315 16.6096 137.738 15.7021C140.77 14.9144 143.887 14.3322 147.021 14.7603C149.081 15.0514 151.159 15.4795 152.999 16.6438C153.714 17.089 154.481 17.4829 155.196 17.9452C155.792 18.339 156.303 18.3048 156.967 18.0651C160.084 16.9863 163.167 15.7705 166.437 15.137C167.629 14.9144 168.805 14.7603 169.997 14.6747C172.109 14.5205 174.102 15.0342 176.043 15.7021C178.138 16.4384 180.063 17.5171 181.715 19.1438C183.282 20.6849 184.559 22.363 185.326 24.4007C185.905 25.9589 186.416 27.5856 186.416 29.2466C186.484 38.0651 186.45 46.8664 186.45 55.6507Z" fill="black"/>
<path d="M208.744 1.45548C208.353 2.20891 207.825 2.89384 207.331 3.59589C206.07 5.44521 204.861 7.32877 203.498 9.12671C203.073 9.69178 202.647 9.98288 201.949 9.98288C200.296 9.96576 198.627 10 196.975 9.96576C195.783 9.94863 195.493 9.46918 196.072 8.45891C197.452 6.0274 199.002 3.71576 200.228 1.19863C200.654 0.359591 201.335 -0.0342443 202.306 0.0171255C203.192 0.0684954 204.095 0.0342488 204.997 0.0342488V0.0513721C205.985 0.0513721 206.973 0.0171255 207.961 0.0684954C209.017 0.102742 209.255 0.513701 208.744 1.45548Z" fill="black"/>
<path d="M52.6289 31.0959C53.2761 28.9041 54.5194 27.1062 56.1205 25.4966C56.3078 25.274 59.6631 21.661 64.1255 21.9692C66.4759 22.1404 68.2473 22.8596 69.6439 23.887C69.6609 23.9041 69.6779 23.9041 69.712 23.9384C70.9894 24.8288 71.9943 25.9932 72.6756 27.4486C72.6756 27.4658 72.6926 27.4829 72.6926 27.5C72.8459 27.8253 72.9822 28.1849 73.1014 28.5445C73.3228 29.2123 73.2887 29.9144 73.2547 30.5993C73.2036 32.3801 72.3349 33.2363 70.5125 33.2705C67.7874 33.3048 65.0623 33.2705 62.3201 33.2705H55.337C54.9452 33.2705 54.5365 33.2877 54.1277 33.2705C52.4926 33.1678 52.1861 32.6027 52.6289 31.0959ZM53.2931 40.5993C53.4294 40.5822 53.5486 40.5822 53.6849 40.5651C55.865 40.3767 63.7338 40.5479 65.982 40.5479C70.6317 40.5479 82.0262 41.1986 82.0262 30.5137C82.0262 23.4932 75.3837 15.1199 64.7557 14.6918C57.0913 14.3836 50.5169 18.2705 46.9402 24.0411C46.9402 24.0411 46.1397 25.1199 45.3732 27.1747C45.1178 27.8425 44.8793 28.5274 44.692 29.2295C43.2442 34.2466 42.3756 42.1747 47.2127 50.3596C55.2178 63.9212 75.9287 57.6712 77.5467 57.2774C78.0066 57.1747 78.3473 57.0548 78.6027 56.9349C79.0626 56.7295 79.3692 56.2671 79.3692 55.7705V50.6164C79.3692 49.9144 78.6368 49.4349 78.0066 49.726C76.3204 50.4966 72.9311 51.6267 67.1061 51.9349C57.8918 52.4315 55.0134 47.0377 54.298 46.2671C53.5827 45.4966 52.3223 42.774 52.3904 41.6438C52.4245 40.9247 52.9184 40.6849 53.2931 40.5993Z" fill="black"/>
<path d="M89.0777 26.6267C89.0777 26.6267 88.175 31.5411 93.3357 35.4795C98.1899 39.1781 101.392 39.7774 104.39 41.524C107.115 43.1164 110.879 45.1884 109.193 48.6301C107.506 52.0719 103.334 52.6884 101.051 52.4829C98.7179 52.2774 95.4136 52.0377 90.4062 50.137C90.4062 50.137 89.1288 49.4692 89.1118 51.0616C89.0948 52.6541 89.1629 56.3699 89.1629 56.3699C89.1629 56.3699 88.9755 57.1233 90.6276 57.6199C94.3236 58.7329 100.506 59.3493 104.066 59.0582C108.188 58.7158 112.803 57.3116 115.835 53.5959C118.85 49.8801 119.19 43.9726 115.835 39.7774C112.48 35.5822 105.65 33.3904 102.789 31.8151C99.9271 30.2397 96.1971 28.2877 97.9344 24.6404C99.6546 20.9932 104.372 21.4726 105.956 21.6267C107.796 21.8151 110.794 22.2603 114.404 23.8185C114.404 23.8185 115.937 24.2979 115.971 22.6541C116.005 21.0103 115.988 18.1849 115.988 18.1849C115.988 18.1849 116.073 17.4658 114.915 16.6267C113.757 15.7877 109.38 14.9144 104.679 14.6918C100.642 14.5034 95.0049 15.9075 92.3819 18.8185C89.0266 22.4829 89.0777 26.6267 89.0777 26.6267Z" fill="black"/>
<path d="M40.1102 19.3836C39.5822 19.0068 39.2075 18.7842 37.8109 18.1336C34.7962 16.7123 28.835 14.589 20.0635 14.589H19.9614C19.3312 14.589 18.718 14.6062 18.1219 14.6233C12.0585 14.863 7.39172 16.1644 4.27485 17.4315C2.74197 18.0308 1.39644 18.8014 0.561873 19.2979C0.0509117 19.6062 -0.153473 20.2397 0.0849758 20.7877L1.9074 25.2569C1.9074 25.2569 2.02663 25.5137 2.09475 25.5822C2.35024 25.8904 2.84416 26.1473 3.62764 25.839C5.34787 25.1712 6.98295 24.5548 8.66912 24.0753C10.1339 23.6473 12.6035 23.1678 14.0512 22.9623C15.7885 22.911 16.2654 24.2123 16.2484 26.1473C16.1632 31.2842 16.2143 36.4384 16.2143 41.5582V54.5377C16.2143 55.6678 16.1973 56.7979 16.2313 57.911C16.2654 58.9212 16.5209 59.1781 17.5598 59.2123C18.9394 59.2466 20.3361 59.2295 21.7327 59.2295C24.2875 59.2295 24.3045 59.2123 24.3045 56.6952V26.5411C24.3045 26.0445 24.2875 25.5479 24.3216 25.0514C24.3726 23.4589 24.8836 23.0308 26.4846 22.9966H26.5016C26.7912 23.0308 27.0807 23.0822 27.3533 23.1164C27.3703 23.1164 27.3873 23.1164 27.3873 23.1164C29.9762 23.5103 32.1222 24.1096 33.7573 24.6918C33.9106 24.7432 34.0468 24.7945 34.1831 24.8459C35.0858 25.1712 35.8011 25.4795 36.3462 25.7021C36.4654 25.7534 36.5505 25.7877 36.6527 25.839C37.5895 26.2329 38.0494 25.839 38.2537 25.4795C38.39 25.2569 38.6625 24.5034 39.7185 22.2089C40.3146 20.8904 40.5871 20.411 40.5531 20.0342C40.536 19.6918 40.2806 19.5034 40.1102 19.3836Z" fill="black"/>
</g>
<defs>
<clipPath id="clip0_1_343">
<rect width="209" height="70" fill="white"/>
</clipPath>
</defs>
</svg>
